<?xml version="1.0" encoding="UTF-8" standalone="no"?>
<!DOCTYPE svg PUBLIC "-//W3C//DTD SVG 1.1//EN"
 "http://www.w3.org/Graphics/SVG/1.1/DTD/svg11.dtd">
<!-- Generated by graphviz version 13.1.0 (20250701.0955)
 -->
<!-- Title: bme280_shot_init Pages: 1 -->
<svg width="277pt" height="884pt"
 viewBox="0.00 0.00 277.00 884.00" xmlns="http://www.w3.org/2000/svg" xmlns:xlink="http://www.w3.org/1999/xlink">
<g id="graph0" class="graph" transform="scale(1 1) rotate(0) translate(4 880)">
<title>bme280_shot_init</title>
<!-- Node1 -->
<g id="Node000001" class="node">
<title>Node1</title>
<g id="a_Node000001"><a xlink:title="shot example init">
<polygon fill="#999999" stroke="#666666" points="92.5,-448 0,-448 0,-428 92.5,-428 92.5,-448"/>
<text xml:space="preserve" text-anchor="middle" x="46.25" y="-434.5" font-family="Helvetica,sans-Serif" font-size="10.00">bme280_shot_init</text>
</a>
</g>
</g>
<!-- Node2 -->
<g id="Node000002" class="node">
<title>Node2</title>
<g id="a_Node000002"><a xlink:href="group__bme280__base__driver.html#ga8860c5dbbc8fd1d7f994d8de1b5d0929" target="_top" xlink:title="close the chip">
<polygon fill="white" stroke="#666666" points="238.25,-876 159.25,-876 159.25,-856 238.25,-856 238.25,-876"/>
<text xml:space="preserve" text-anchor="middle" x="198.75" y="-862.5" font-family="Helvetica,sans-Serif" font-size="10.00">bme280_deinit</text>
</a>
</g>
</g>
<!-- Node1&#45;&gt;Node2 -->
<g id="edge1_Node000001_Node000002" class="edge">
<title>Node1&#45;&gt;Node2</title>
<g id="a_edge1_Node000001_Node000002"><a xlink:title=" ">
<path fill="none" stroke="#63b8ff" d="M47.86,-448.29C51.48,-505.7 71.9,-786.19 128.5,-847 133.81,-852.7 140.65,-856.75 147.96,-859.62"/>
<polygon fill="#63b8ff" stroke="#63b8ff" points="146.85,-862.94 157.44,-862.57 148.93,-856.26 146.85,-862.94"/>
</a>
</g>
</g>
<!-- Node3 -->
<g id="Node000003" class="node">
<title>Node3</title>
<g id="a_Node000003"><a xlink:href="group__bme280__base__driver.html#gaf1e7a4a2b29542c4ab9e83515f25d41a" target="_top" xlink:title="initialize the chip">
<polygon fill="white" stroke="#666666" points="233,-838 164.5,-838 164.5,-818 233,-818 233,-838"/>
<text xml:space="preserve" text-anchor="middle" x="198.75" y="-824.5" font-family="Helvetica,sans-Serif" font-size="10.00">bme280_init</text>
</a>
</g>
</g>
<!-- Node1&#45;&gt;Node3 -->
<g id="edge2_Node000001_Node000003" class="edge">
<title>Node1&#45;&gt;Node3</title>
<g id="a_edge2_Node000001_Node000003"><a xlink:title=" ">
<path fill="none" stroke="#63b8ff" d="M48.1,-448.39C52.73,-502.79 76.75,-754.48 128.5,-809 135.03,-815.88 143.79,-820.35 152.89,-823.23"/>
<polygon fill="#63b8ff" stroke="#63b8ff" points="151.99,-826.61 162.54,-825.65 153.69,-819.82 151.99,-826.61"/>
</a>
</g>
</g>
<!-- Node4 -->
<g id="Node000004" class="node">
<title>Node4</title>
<g id="a_Node000004"><a xlink:href="group__bme280__interface__driver.html#ga1fd9682e626b74aff373919df4a89846" target="_top" xlink:title="interface print format data">
<polygon fill="white" stroke="#666666" points="261.12,-800 136.38,-800 136.38,-768 261.12,-768 261.12,-800"/>
<text xml:space="preserve" text-anchor="start" x="144.38" y="-786.5" font-family="Helvetica,sans-Serif" font-size="10.00">bme280_interface_debug</text>
<text xml:space="preserve" text-anchor="middle" x="198.75" y="-774.5" font-family="Helvetica,sans-Serif" font-size="10.00">_print</text>
</a>
</g>
</g>
<!-- Node1&#45;&gt;Node4 -->
<g id="edge3_Node000001_Node000004" class="edge">
<title>Node1&#45;&gt;Node4</title>
<g id="a_edge3_Node000001_Node000004"><a xlink:title=" ">
<path fill="none" stroke="#63b8ff" d="M48.54,-448.21C54.95,-497.54 84.88,-710.86 128.5,-759 128.97,-759.52 129.45,-760.03 129.94,-760.52"/>
<polygon fill="#63b8ff" stroke="#63b8ff" points="127.61,-763.13 137.57,-766.73 132.02,-757.7 127.61,-763.13"/>
</a>
</g>
</g>
<!-- Node5 -->
<g id="Node000005" class="node">
<title>Node5</title>
<g id="a_Node000005"><a xlink:href="group__bme280__interface__driver.html#gaf7c8d8e9c6c91900b0cdb2ba32328c26" target="_top" xlink:title="interface delay ms">
<polygon fill="white" stroke="#666666" points="269,-750 128.5,-750 128.5,-730 269,-730 269,-750"/>
<text xml:space="preserve" text-anchor="middle" x="198.75" y="-736.5" font-family="Helvetica,sans-Serif" font-size="10.00">bme280_interface_delay_ms</text>
</a>
</g>
</g>
<!-- Node1&#45;&gt;Node5 -->
<g id="edge4_Node000001_Node000005" class="edge">
<title>Node1&#45;&gt;Node5</title>
<g id="a_edge4_Node000001_Node000005"><a xlink:title=" ">
<path fill="none" stroke="#63b8ff" d="M46.88,-448.25C45.99,-489.07 48.33,-641.77 128.5,-721 129.26,-721.75 130.04,-722.47 130.85,-723.16"/>
<polygon fill="#63b8ff" stroke="#63b8ff" points="128.79,-725.99 139.03,-728.71 132.72,-720.2 128.79,-725.99"/>
</a>
</g>
</g>
<!-- Node6 -->
<g id="Node000006" class="node">
<title>Node6</title>
<g id="a_Node000006"><a xlink:href="group__bme280__interface__driver.html#gac253d42f6497f5e36fea6930bb2fc03e" target="_top" xlink:title="interface iic bus deinit">
<polygon fill="white" stroke="#666666" points="252.88,-712 144.62,-712 144.62,-680 252.88,-680 252.88,-712"/>
<text xml:space="preserve" text-anchor="start" x="152.62" y="-698.5" font-family="Helvetica,sans-Serif" font-size="10.00">bme280_interface_iic</text>
<text xml:space="preserve" text-anchor="middle" x="198.75" y="-686.5" font-family="Helvetica,sans-Serif" font-size="10.00">_deinit</text>
</a>
</g>
</g>
<!-- Node1&#45;&gt;Node6 -->
<g id="edge5_Node000001_Node000006" class="edge">
<title>Node1&#45;&gt;Node6</title>
<g id="a_edge5_Node000001_Node000006"><a xlink:title=" ">
<path fill="none" stroke="#63b8ff" d="M47.81,-448.47C50.32,-484.57 63.43,-605.21 128.5,-671 130.51,-673.03 132.69,-674.89 135,-676.61"/>
<polygon fill="#63b8ff" stroke="#63b8ff" points="132.84,-679.39 143.18,-681.7 136.54,-673.44 132.84,-679.39"/>
</a>
</g>
</g>
<!-- Node7 -->
<g id="Node000007" class="node">
<title>Node7</title>
<g id="a_Node000007"><a xlink:href="group__bme280__interface__driver.html#gaf6bd1109636d22082443af9d5c18a59c" target="_top" xlink:title="interface iic bus init">
<polygon fill="white" stroke="#666666" points="261.88,-662 135.62,-662 135.62,-642 261.88,-642 261.88,-662"/>
<text xml:space="preserve" text-anchor="middle" x="198.75" y="-648.5" font-family="Helvetica,sans-Serif" font-size="10.00">bme280_interface_iic_init</text>
</a>
</g>
</g>
<!-- Node1&#45;&gt;Node7 -->
<g id="edge6_Node000001_Node000007" class="edge">
<title>Node1&#45;&gt;Node7</title>
<g id="a_edge6_Node000001_Node000007"><a xlink:title=" ">
<path fill="none" stroke="#63b8ff" d="M48.39,-448.29C52.56,-480.66 69.87,-581.38 128.5,-633 129.61,-633.97 130.76,-634.9 131.95,-635.77"/>
<polygon fill="#63b8ff" stroke="#63b8ff" points="130.04,-638.71 140.42,-640.84 133.63,-632.71 130.04,-638.71"/>
</a>
</g>
</g>
<!-- Node8 -->
<g id="Node000008" class="node">
<title>Node8</title>
<g id="a_Node000008"><a xlink:href="group__bme280__interface__driver.html#gab53fc5d0df0fdba6bf0ff0ac0b2419d3" target="_top" xlink:title="interface iic bus read">
<polygon fill="white" stroke="#666666" points="264.88,-624 132.62,-624 132.62,-604 264.88,-604 264.88,-624"/>
<text xml:space="preserve" text-anchor="middle" x="198.75" y="-610.5" font-family="Helvetica,sans-Serif" font-size="10.00">bme280_interface_iic_read</text>
</a>
</g>
</g>
<!-- Node1&#45;&gt;Node8 -->
<g id="edge7_Node000001_Node000008" class="edge">
<title>Node1&#45;&gt;Node8</title>
<g id="a_edge7_Node000001_Node000008"><a xlink:title=" ">
<path fill="none" stroke="#63b8ff" d="M49.52,-448.25C56.26,-476.29 78.88,-554.83 128.5,-595 129.83,-596.08 131.22,-597.1 132.66,-598.06"/>
<polygon fill="#63b8ff" stroke="#63b8ff" points="130.93,-601.1 141.38,-602.86 134.31,-594.97 130.93,-601.1"/>
</a>
</g>
</g>
<!-- Node9 -->
<g id="Node000009" class="node">
<title>Node9</title>
<g id="a_Node000009"><a xlink:href="group__bme280__interface__driver.html#ga92cd646291aa0b001b5c223187125eee" target="_top" xlink:title="interface iic bus write">
<polygon fill="white" stroke="#666666" points="252.88,-586 144.62,-586 144.62,-554 252.88,-554 252.88,-586"/>
<text xml:space="preserve" text-anchor="start" x="152.62" y="-572.5" font-family="Helvetica,sans-Serif" font-size="10.00">bme280_interface_iic</text>
<text xml:space="preserve" text-anchor="middle" x="198.75" y="-560.5" font-family="Helvetica,sans-Serif" font-size="10.00">_write</text>
</a>
</g>
</g>
<!-- Node1&#45;&gt;Node9 -->
<g id="edge8_Node000001_Node000009" class="edge">
<title>Node1&#45;&gt;Node9</title>
<g id="a_edge8_Node000001_Node000009"><a xlink:title=" ">
<path fill="none" stroke="#63b8ff" d="M52.48,-448.42C63.61,-469.59 91.66,-517.92 128.5,-545 130.47,-546.45 132.52,-547.81 134.65,-549.11"/>
<polygon fill="#63b8ff" stroke="#63b8ff" points="132.53,-551.94 142.99,-553.61 135.86,-545.78 132.53,-551.94"/>
</a>
</g>
</g>
<!-- Node10 -->
<g id="Node000010" class="node">
<title>Node10</title>
<g id="a_Node000010"><a xlink:href="group__bme280__interface__driver.html#gad9b425a111baeaedd61b2bd8d199963a" target="_top" xlink:title="interface spi bus deinit">
<polygon fill="white" stroke="#666666" points="254.38,-536 143.12,-536 143.12,-504 254.38,-504 254.38,-536"/>
<text xml:space="preserve" text-anchor="start" x="151.12" y="-522.5" font-family="Helvetica,sans-Serif" font-size="10.00">bme280_interface_spi</text>
<text xml:space="preserve" text-anchor="middle" x="198.75" y="-510.5" font-family="Helvetica,sans-Serif" font-size="10.00">_deinit</text>
</a>
</g>
</g>
<!-- Node1&#45;&gt;Node10 -->
<g id="edge9_Node000001_Node000010" class="edge">
<title>Node1&#45;&gt;Node10</title>
<g id="a_edge9_Node000001_Node000010"><a xlink:title=" ">
<path fill="none" stroke="#63b8ff" d="M59.8,-448.4C75.21,-460.79 102.51,-481.5 128.5,-495 131.17,-496.39 133.94,-497.73 136.76,-499.03"/>
<polygon fill="#63b8ff" stroke="#63b8ff" points="135.19,-502.16 145.76,-502.91 137.96,-495.74 135.19,-502.16"/>
</a>
</g>
</g>
<!-- Node11 -->
<g id="Node000011" class="node">
<title>Node11</title>
<g id="a_Node000011"><a xlink:href="group__bme280__interface__driver.html#ga8ba2e28c6378d6ed52d308e4d9320dbd" target="_top" xlink:title="interface spi bus init">
<polygon fill="white" stroke="#666666" points="263.38,-486 134.12,-486 134.12,-466 263.38,-466 263.38,-486"/>
<text xml:space="preserve" text-anchor="middle" x="198.75" y="-472.5" font-family="Helvetica,sans-Serif" font-size="10.00">bme280_interface_spi_init</text>
</a>
</g>
</g>
<!-- Node1&#45;&gt;Node11 -->
<g id="edge10_Node000001_Node000011" class="edge">
<title>Node1&#45;&gt;Node11</title>
<g id="a_edge10_Node000001_Node000011"><a xlink:title=" ">
<path fill="none" stroke="#63b8ff" d="M88.77,-448.48C106.29,-452.91 126.89,-458.11 145.43,-462.79"/>
<polygon fill="#63b8ff" stroke="#63b8ff" points="144.34,-466.12 154.89,-465.18 146.06,-459.34 144.34,-466.12"/>
</a>
</g>
</g>
<!-- Node12 -->
<g id="Node000012" class="node">
<title>Node12</title>
<g id="a_Node000012"><a xlink:href="group__bme280__interface__driver.html#gac4c953917a234f2c0a8bb2d63bf80299" target="_top" xlink:title="interface spi bus read">
<polygon fill="white" stroke="#666666" points="266.38,-448 131.12,-448 131.12,-428 266.38,-428 266.38,-448"/>
<text xml:space="preserve" text-anchor="middle" x="198.75" y="-434.5" font-family="Helvetica,sans-Serif" font-size="10.00">bme280_interface_spi_read</text>
</a>
</g>
</g>
<!-- Node1&#45;&gt;Node12 -->
<g id="edge11_Node000001_Node000012" class="edge">
<title>Node1&#45;&gt;Node12</title>
<g id="a_edge11_Node000001_Node000012"><a xlink:title=" ">
<path fill="none" stroke="#63b8ff" d="M92.81,-438C101.21,-438 110.19,-438 119.23,-438"/>
<polygon fill="#63b8ff" stroke="#63b8ff" points="119.17,-441.5 129.17,-438 119.17,-434.5 119.17,-441.5"/>
</a>
</g>
</g>
<!-- Node13 -->
<g id="Node000013" class="node">
<title>Node13</title>
<g id="a_Node000013"><a xlink:href="group__bme280__interface__driver.html#ga3f0e3e8ab53513123f31d6b1b1f48d95" target="_top" xlink:title="interface spi bus write">
<polygon fill="white" stroke="#666666" points="254.38,-410 143.12,-410 143.12,-378 254.38,-378 254.38,-410"/>
<text xml:space="preserve" text-anchor="start" x="151.12" y="-396.5" font-family="Helvetica,sans-Serif" font-size="10.00">bme280_interface_spi</text>
<text xml:space="preserve" text-anchor="middle" x="198.75" y="-384.5" font-family="Helvetica,sans-Serif" font-size="10.00">_write</text>
</a>
</g>
</g>
<!-- Node1&#45;&gt;Node13 -->
<g id="edge12_Node000001_Node000013" class="edge">
<title>Node1&#45;&gt;Node13</title>
<g id="a_edge12_Node000001_Node000013"><a xlink:title=" ">
<path fill="none" stroke="#63b8ff" d="M82.92,-427.57C97.61,-423.28 115.11,-418.16 131.96,-413.23"/>
<polygon fill="#63b8ff" stroke="#63b8ff" points="132.84,-416.62 141.46,-410.46 130.88,-409.9 132.84,-416.62"/>
</a>
</g>
</g>
<!-- Node14 -->
<g id="Node000014" class="node">
<title>Node14</title>
<g id="a_Node000014"><a xlink:href="group__bme280__base__driver.html#ga595d16ea9a4f68b45d0b9fc06c071879" target="_top" xlink:title="set the iic address pin">
<polygon fill="white" stroke="#666666" points="254.38,-360 143.12,-360 143.12,-340 254.38,-340 254.38,-360"/>
<text xml:space="preserve" text-anchor="middle" x="198.75" y="-346.5" font-family="Helvetica,sans-Serif" font-size="10.00">bme280_set_addr_pin</text>
</a>
</g>
</g>
<!-- Node1&#45;&gt;Node14 -->
<g id="edge13_Node000001_Node000014" class="edge">
<title>Node1&#45;&gt;Node14</title>
<g id="a_edge13_Node000001_Node000014"><a xlink:title=" ">
<path fill="none" stroke="#63b8ff" d="M56.23,-427.98C70.22,-412.97 98.72,-384.73 128.5,-369 131.7,-367.31 135.06,-365.76 138.51,-364.34"/>
<polygon fill="#63b8ff" stroke="#63b8ff" points="139.44,-367.73 147.61,-360.98 137.01,-361.16 139.44,-367.73"/>
</a>
</g>
</g>
<!-- Node15 -->
<g id="Node000015" class="node">
<title>Node15</title>
<g id="a_Node000015"><a xlink:href="group__bme280__base__driver.html#gaa5134a1e7d271fa9525ddc7bc3661888" target="_top" xlink:title="set filter">
<polygon fill="white" stroke="#666666" points="245.38,-322 152.12,-322 152.12,-302 245.38,-302 245.38,-322"/>
<text xml:space="preserve" text-anchor="middle" x="198.75" y="-308.5" font-family="Helvetica,sans-Serif" font-size="10.00">bme280_set_filter</text>
</a>
</g>
</g>
<!-- Node1&#45;&gt;Node15 -->
<g id="edge14_Node000001_Node000015" class="edge">
<title>Node1&#45;&gt;Node15</title>
<g id="a_edge14_Node000001_Node000015"><a xlink:title=" ">
<path fill="none" stroke="#63b8ff" d="M52.14,-427.67C62.84,-406.23 90.43,-356.74 128.5,-331 132.45,-328.33 136.77,-326.03 141.25,-324.06"/>
<polygon fill="#63b8ff" stroke="#63b8ff" points="142.4,-327.36 150.51,-320.54 139.92,-320.82 142.4,-327.36"/>
</a>
</g>
</g>
<!-- Node16 -->
<g id="Node000016" class="node">
<title>Node16</title>
<g id="a_Node000016"><a xlink:href="group__bme280__base__driver.html#gae8ca5d4d531ee44e0ab9f2fa932cc2e4" target="_top" xlink:title="set humidity oversampling">
<polygon fill="white" stroke="#666666" points="254.38,-284 143.12,-284 143.12,-252 254.38,-252 254.38,-284"/>
<text xml:space="preserve" text-anchor="start" x="151.12" y="-270.5" font-family="Helvetica,sans-Serif" font-size="10.00">bme280_set_humidity</text>
<text xml:space="preserve" text-anchor="middle" x="198.75" y="-258.5" font-family="Helvetica,sans-Serif" font-size="10.00">_oversampling</text>
</a>
</g>
</g>
<!-- Node1&#45;&gt;Node16 -->
<g id="edge15_Node000001_Node000016" class="edge">
<title>Node1&#45;&gt;Node16</title>
<g id="a_edge15_Node000001_Node000016"><a xlink:title=" ">
<path fill="none" stroke="#63b8ff" d="M50.27,-427.58C58.42,-401.22 83.38,-331.26 128.5,-293 129.97,-291.75 131.52,-290.56 133.11,-289.43"/>
<polygon fill="#63b8ff" stroke="#63b8ff" points="134.74,-292.53 141.47,-284.34 131.11,-286.55 134.74,-292.53"/>
</a>
</g>
</g>
<!-- Node17 -->
<g id="Node000017" class="node">
<title>Node17</title>
<g id="a_Node000017"><a xlink:href="group__bme280__base__driver.html#ga8450d7247c8cf4a7d100d591241136ba" target="_top" xlink:title="set the interface">
<polygon fill="white" stroke="#666666" points="254.75,-234 142.75,-234 142.75,-214 254.75,-214 254.75,-234"/>
<text xml:space="preserve" text-anchor="middle" x="198.75" y="-220.5" font-family="Helvetica,sans-Serif" font-size="10.00">bme280_set_interface</text>
</a>
</g>
</g>
<!-- Node1&#45;&gt;Node17 -->
<g id="edge16_Node000001_Node000017" class="edge">
<title>Node1&#45;&gt;Node17</title>
<g id="a_edge16_Node000001_Node000017"><a xlink:title=" ">
<path fill="none" stroke="#63b8ff" d="M48.39,-427.71C52.56,-395.34 69.87,-294.62 128.5,-243 129.79,-241.87 131.13,-240.8 132.53,-239.8"/>
<polygon fill="#63b8ff" stroke="#63b8ff" points="134.22,-242.87 141.1,-234.81 130.69,-236.82 134.22,-242.87"/>
</a>
</g>
</g>
<!-- Node18 -->
<g id="Node000018" class="node">
<title>Node18</title>
<g id="a_Node000018"><a xlink:href="group__bme280__base__driver.html#gad28d3251607ec6446bd00a4e7491d2f6" target="_top" xlink:title="set mode">
<polygon fill="white" stroke="#666666" points="248,-196 149.5,-196 149.5,-176 248,-176 248,-196"/>
<text xml:space="preserve" text-anchor="middle" x="198.75" y="-182.5" font-family="Helvetica,sans-Serif" font-size="10.00">bme280_set_mode</text>
</a>
</g>
</g>
<!-- Node1&#45;&gt;Node18 -->
<g id="edge17_Node000001_Node000018" class="edge">
<title>Node1&#45;&gt;Node18</title>
<g id="a_edge17_Node000001_Node000018"><a xlink:title=" ">
<path fill="none" stroke="#63b8ff" d="M47.6,-427.84C49.42,-391.75 60.58,-268.47 128.5,-205 131.6,-202.11 135.09,-199.65 138.83,-197.55"/>
<polygon fill="#63b8ff" stroke="#63b8ff" points="140.14,-200.8 147.78,-193.47 137.23,-194.44 140.14,-200.8"/>
</a>
</g>
</g>
<!-- Node19 -->
<g id="Node000019" class="node">
<title>Node19</title>
<g id="a_Node000019"><a xlink:href="group__bme280__base__driver.html#ga45fc9d89200d59732415245ddda36adb" target="_top" xlink:title="set pressure oversampling">
<polygon fill="white" stroke="#666666" points="254.75,-158 142.75,-158 142.75,-126 254.75,-126 254.75,-158"/>
<text xml:space="preserve" text-anchor="start" x="150.75" y="-144.5" font-family="Helvetica,sans-Serif" font-size="10.00">bme280_set_pressure</text>
<text xml:space="preserve" text-anchor="middle" x="198.75" y="-132.5" font-family="Helvetica,sans-Serif" font-size="10.00">_oversampling</text>
</a>
</g>
</g>
<!-- Node1&#45;&gt;Node19 -->
<g id="edge18_Node000001_Node000019" class="edge">
<title>Node1&#45;&gt;Node19</title>
<g id="a_edge18_Node000001_Node000019"><a xlink:title=" ">
<path fill="none" stroke="#63b8ff" d="M47.22,-427.55C47.67,-387.91 54.56,-245.13 128.5,-167 130.02,-165.4 131.64,-163.9 133.36,-162.5"/>
<polygon fill="#63b8ff" stroke="#63b8ff" points="135,-165.61 141.31,-157.1 131.07,-159.82 135,-165.61"/>
</a>
</g>
</g>
<!-- Node20 -->
<g id="Node000020" class="node">
<title>Node20</title>
<g id="a_Node000020"><a xlink:href="group__bme280__base__driver.html#ga3e262f6746e6b6cb5376238519e4f2ce" target="_top" xlink:title="set spi wire">
<polygon fill="white" stroke="#666666" points="254,-108 143.5,-108 143.5,-88 254,-88 254,-108"/>
<text xml:space="preserve" text-anchor="middle" x="198.75" y="-94.5" font-family="Helvetica,sans-Serif" font-size="10.00">bme280_set_spi_wire</text>
</a>
</g>
</g>
<!-- Node1&#45;&gt;Node20 -->
<g id="edge19_Node000001_Node000020" class="edge">
<title>Node1&#45;&gt;Node20</title>
<g id="a_edge19_Node000001_Node000020"><a xlink:title=" ">
<path fill="none" stroke="#63b8ff" d="M48.46,-427.72C54.52,-378.05 83.03,-163.39 128.5,-117 130.07,-115.4 131.76,-113.93 133.55,-112.58"/>
<polygon fill="#63b8ff" stroke="#63b8ff" points="135.12,-115.72 141.89,-107.56 131.52,-109.72 135.12,-115.72"/>
</a>
</g>
</g>
<!-- Node21 -->
<g id="Node000021" class="node">
<title>Node21</title>
<g id="a_Node000021"><a xlink:href="group__bme280__base__driver.html#ga0d861e352d42d7da9ede5cc56e188774" target="_top" xlink:title="set standby time">
<polygon fill="white" stroke="#666666" points="265.25,-70 132.25,-70 132.25,-50 265.25,-50 265.25,-70"/>
<text xml:space="preserve" text-anchor="middle" x="198.75" y="-56.5" font-family="Helvetica,sans-Serif" font-size="10.00">bme280_set_standby_time</text>
</a>
</g>
</g>
<!-- Node1&#45;&gt;Node21 -->
<g id="edge20_Node000001_Node000021" class="edge">
<title>Node1&#45;&gt;Node21</title>
<g id="a_edge20_Node000001_Node000021"><a xlink:title=" ">
<path fill="none" stroke="#63b8ff" d="M48.18,-427.6C53.15,-374.22 78.28,-131.55 128.5,-79 129.11,-78.36 129.75,-77.74 130.4,-77.14"/>
<polygon fill="#63b8ff" stroke="#63b8ff" points="132.44,-79.98 138.52,-71.3 128.35,-74.3 132.44,-79.98"/>
</a>
</g>
</g>
<!-- Node22 -->
<g id="Node000022" class="node">
<title>Node22</title>
<g id="a_Node000022"><a xlink:href="group__bme280__base__driver.html#ga3d505f79d0e43eec0bb08c1805a4cee3" target="_top" xlink:title="set temperatue oversampling">
<polygon fill="white" stroke="#666666" points="260.38,-32 137.12,-32 137.12,0 260.38,0 260.38,-32"/>
<text xml:space="preserve" text-anchor="start" x="145.12" y="-18.5" font-family="Helvetica,sans-Serif" font-size="10.00">bme280_set_temperatue</text>
<text xml:space="preserve" text-anchor="middle" x="198.75" y="-6.5" font-family="Helvetica,sans-Serif" font-size="10.00">_oversampling</text>
</a>
</g>
</g>
<!-- Node1&#45;&gt;Node22 -->
<g id="edge21_Node000001_Node000022" class="edge">
<title>Node1&#45;&gt;Node22</title>
<g id="a_edge21_Node000001_Node000022"><a xlink:title=" ">
<path fill="none" stroke="#63b8ff" d="M48.01,-427.72C52.37,-371.53 75.8,-101.93 128.5,-41 128.86,-40.59 129.22,-40.19 129.59,-39.79"/>
<polygon fill="#63b8ff" stroke="#63b8ff" points="131.78,-42.52 137.1,-33.36 127.23,-37.2 131.78,-42.52"/>
</a>
</g>
</g>
</g>
</svg>
