<?xml version="1.0" encoding="UTF-8" standalone="no"?>
<!DOCTYPE svg PUBLIC "-//W3C//DTD SVG 1.1//EN"
 "http://www.w3.org/Graphics/SVG/1.1/DTD/svg11.dtd">
<!-- Generated by graphviz version 13.1.0 (20250701.0955)
 -->
<!-- Title: bme280_basic_init Pages: 1 -->
<svg width="282pt" height="884pt"
 viewBox="0.00 0.00 282.00 884.00" xmlns="http://www.w3.org/2000/svg" xmlns:xlink="http://www.w3.org/1999/xlink">
<g id="graph0" class="graph" transform="scale(1 1) rotate(0) translate(4 880)">
<title>bme280_basic_init</title>
<!-- Node1 -->
<g id="Node000001" class="node">
<title>Node1</title>
<g id="a_Node000001"><a xlink:title="basic example init">
<polygon fill="#999999" stroke="#666666" points="97,-448 0,-448 0,-428 97,-428 97,-448"/>
<text xml:space="preserve" text-anchor="middle" x="48.5" y="-434.5" font-family="Helvetica,sans-Serif" font-size="10.00">bme280_basic_init</text>
</a>
</g>
</g>
<!-- Node2 -->
<g id="Node000002" class="node">
<title>Node2</title>
<g id="a_Node000002"><a xlink:href="group__bme280__base__driver.html#ga8860c5dbbc8fd1d7f994d8de1b5d0929" target="_top" xlink:title="close the chip">
<polygon fill="white" stroke="#666666" points="242.75,-876 163.75,-876 163.75,-856 242.75,-856 242.75,-876"/>
<text xml:space="preserve" text-anchor="middle" x="203.25" y="-862.5" font-family="Helvetica,sans-Serif" font-size="10.00">bme280_deinit</text>
</a>
</g>
</g>
<!-- Node1&#45;&gt;Node2 -->
<g id="edge1_Node000001_Node000002" class="edge">
<title>Node1&#45;&gt;Node2</title>
<g id="a_edge1_Node000001_Node000002"><a xlink:title=" ">
<path fill="none" stroke="#63b8ff" d="M50.17,-448.29C54.13,-505.72 76.18,-786.28 133,-847 138.32,-852.69 145.17,-856.73 152.49,-859.59"/>
<polygon fill="#63b8ff" stroke="#63b8ff" points="151.38,-862.91 161.97,-862.55 153.46,-856.23 151.38,-862.91"/>
</a>
</g>
</g>
<!-- Node3 -->
<g id="Node000003" class="node">
<title>Node3</title>
<g id="a_Node000003"><a xlink:href="group__bme280__base__driver.html#gaf1e7a4a2b29542c4ab9e83515f25d41a" target="_top" xlink:title="initialize the chip">
<polygon fill="white" stroke="#666666" points="237.5,-838 169,-838 169,-818 237.5,-818 237.5,-838"/>
<text xml:space="preserve" text-anchor="middle" x="203.25" y="-824.5" font-family="Helvetica,sans-Serif" font-size="10.00">bme280_init</text>
</a>
</g>
</g>
<!-- Node1&#45;&gt;Node3 -->
<g id="edge2_Node000001_Node000003" class="edge">
<title>Node1&#45;&gt;Node3</title>
<g id="a_edge2_Node000001_Node000003"><a xlink:title=" ">
<path fill="none" stroke="#63b8ff" d="M50.41,-448.39C55.4,-502.81 81.03,-754.56 133,-809 139.55,-815.86 148.32,-820.32 157.41,-823.2"/>
<polygon fill="#63b8ff" stroke="#63b8ff" points="156.52,-826.59 167.07,-825.62 158.22,-819.8 156.52,-826.59"/>
</a>
</g>
</g>
<!-- Node4 -->
<g id="Node000004" class="node">
<title>Node4</title>
<g id="a_Node000004"><a xlink:href="group__bme280__interface__driver.html#ga1fd9682e626b74aff373919df4a89846" target="_top" xlink:title="interface print format data">
<polygon fill="white" stroke="#666666" points="265.62,-800 140.88,-800 140.88,-768 265.62,-768 265.62,-800"/>
<text xml:space="preserve" text-anchor="start" x="148.88" y="-786.5" font-family="Helvetica,sans-Serif" font-size="10.00">bme280_interface_debug</text>
<text xml:space="preserve" text-anchor="middle" x="203.25" y="-774.5" font-family="Helvetica,sans-Serif" font-size="10.00">_print</text>
</a>
</g>
</g>
<!-- Node1&#45;&gt;Node4 -->
<g id="edge3_Node000001_Node000004" class="edge">
<title>Node1&#45;&gt;Node4</title>
<g id="a_edge3_Node000001_Node000004"><a xlink:title=" ">
<path fill="none" stroke="#63b8ff" d="M48.97,-448.48C47.33,-492.51 46.86,-664.55 133,-759 133.47,-759.52 133.95,-760.02 134.45,-760.52"/>
<polygon fill="#63b8ff" stroke="#63b8ff" points="132.12,-763.14 142.09,-766.71 136.53,-757.7 132.12,-763.14"/>
</a>
</g>
</g>
<!-- Node5 -->
<g id="Node000005" class="node">
<title>Node5</title>
<g id="a_Node000005"><a xlink:href="group__bme280__interface__driver.html#gaf7c8d8e9c6c91900b0cdb2ba32328c26" target="_top" xlink:title="interface delay ms">
<polygon fill="white" stroke="#666666" points="273.5,-750 133,-750 133,-730 273.5,-730 273.5,-750"/>
<text xml:space="preserve" text-anchor="middle" x="203.25" y="-736.5" font-family="Helvetica,sans-Serif" font-size="10.00">bme280_interface_delay_ms</text>
</a>
</g>
</g>
<!-- Node1&#45;&gt;Node5 -->
<g id="edge4_Node000001_Node000005" class="edge">
<title>Node1&#45;&gt;Node5</title>
<g id="a_edge4_Node000001_Node000005"><a xlink:title=" ">
<path fill="none" stroke="#63b8ff" d="M49.22,-448.25C48.69,-489.11 52.37,-641.9 133,-721 133.76,-721.74 134.54,-722.46 135.35,-723.15"/>
<polygon fill="#63b8ff" stroke="#63b8ff" points="133.31,-725.99 143.56,-728.68 137.22,-720.19 133.31,-725.99"/>
</a>
</g>
</g>
<!-- Node6 -->
<g id="Node000006" class="node">
<title>Node6</title>
<g id="a_Node000006"><a xlink:href="group__bme280__interface__driver.html#gac253d42f6497f5e36fea6930bb2fc03e" target="_top" xlink:title="interface iic bus deinit">
<polygon fill="white" stroke="#666666" points="257.38,-712 149.12,-712 149.12,-680 257.38,-680 257.38,-712"/>
<text xml:space="preserve" text-anchor="start" x="157.12" y="-698.5" font-family="Helvetica,sans-Serif" font-size="10.00">bme280_interface_iic</text>
<text xml:space="preserve" text-anchor="middle" x="203.25" y="-686.5" font-family="Helvetica,sans-Serif" font-size="10.00">_deinit</text>
</a>
</g>
</g>
<!-- Node1&#45;&gt;Node6 -->
<g id="edge5_Node000001_Node000006" class="edge">
<title>Node1&#45;&gt;Node6</title>
<g id="a_edge5_Node000001_Node000006"><a xlink:title=" ">
<path fill="none" stroke="#63b8ff" d="M50.18,-448.48C53.07,-484.59 67.45,-605.29 133,-671 134.97,-672.98 137.12,-674.8 139.39,-676.48"/>
<polygon fill="#63b8ff" stroke="#63b8ff" points="137.04,-679.15 147.38,-681.48 140.75,-673.21 137.04,-679.15"/>
</a>
</g>
</g>
<!-- Node7 -->
<g id="Node000007" class="node">
<title>Node7</title>
<g id="a_Node000007"><a xlink:href="group__bme280__interface__driver.html#gaf6bd1109636d22082443af9d5c18a59c" target="_top" xlink:title="interface iic bus init">
<polygon fill="white" stroke="#666666" points="266.38,-662 140.12,-662 140.12,-642 266.38,-642 266.38,-662"/>
<text xml:space="preserve" text-anchor="middle" x="203.25" y="-648.5" font-family="Helvetica,sans-Serif" font-size="10.00">bme280_interface_iic_init</text>
</a>
</g>
</g>
<!-- Node1&#45;&gt;Node7 -->
<g id="edge6_Node000001_Node000007" class="edge">
<title>Node1&#45;&gt;Node7</title>
<g id="a_edge6_Node000001_Node000007"><a xlink:title=" ">
<path fill="none" stroke="#63b8ff" d="M50.77,-448.29C55.33,-480.69 73.87,-581.45 133,-633 134.11,-633.97 135.27,-634.89 136.46,-635.76"/>
<polygon fill="#63b8ff" stroke="#63b8ff" points="134.57,-638.71 144.95,-640.81 138.14,-632.69 134.57,-638.71"/>
</a>
</g>
</g>
<!-- Node8 -->
<g id="Node000008" class="node">
<title>Node8</title>
<g id="a_Node000008"><a xlink:href="group__bme280__interface__driver.html#gab53fc5d0df0fdba6bf0ff0ac0b2419d3" target="_top" xlink:title="interface iic bus read">
<polygon fill="white" stroke="#666666" points="269.38,-624 137.12,-624 137.12,-604 269.38,-604 269.38,-624"/>
<text xml:space="preserve" text-anchor="middle" x="203.25" y="-610.5" font-family="Helvetica,sans-Serif" font-size="10.00">bme280_interface_iic_read</text>
</a>
</g>
</g>
<!-- Node1&#45;&gt;Node8 -->
<g id="edge7_Node000001_Node000008" class="edge">
<title>Node1&#45;&gt;Node8</title>
<g id="a_edge7_Node000001_Node000008"><a xlink:title=" ">
<path fill="none" stroke="#63b8ff" d="M51.92,-448.26C59.08,-476.31 82.86,-554.88 133,-595 134.34,-596.07 135.73,-597.08 137.17,-598.04"/>
<polygon fill="#63b8ff" stroke="#63b8ff" points="135.46,-601.09 145.92,-602.82 138.82,-594.95 135.46,-601.09"/>
</a>
</g>
</g>
<!-- Node9 -->
<g id="Node000009" class="node">
<title>Node9</title>
<g id="a_Node000009"><a xlink:href="group__bme280__interface__driver.html#ga92cd646291aa0b001b5c223187125eee" target="_top" xlink:title="interface iic bus write">
<polygon fill="white" stroke="#666666" points="257.38,-586 149.12,-586 149.12,-554 257.38,-554 257.38,-586"/>
<text xml:space="preserve" text-anchor="start" x="157.12" y="-572.5" font-family="Helvetica,sans-Serif" font-size="10.00">bme280_interface_iic</text>
<text xml:space="preserve" text-anchor="middle" x="203.25" y="-560.5" font-family="Helvetica,sans-Serif" font-size="10.00">_write</text>
</a>
</g>
</g>
<!-- Node1&#45;&gt;Node9 -->
<g id="edge8_Node000001_Node000009" class="edge">
<title>Node1&#45;&gt;Node9</title>
<g id="a_edge8_Node000001_Node000009"><a xlink:title=" ">
<path fill="none" stroke="#63b8ff" d="M54.95,-448.41C66.53,-469.57 95.61,-517.89 133,-545 134.98,-546.43 137.04,-547.79 139.17,-549.08"/>
<polygon fill="#63b8ff" stroke="#63b8ff" points="137.07,-551.92 147.54,-553.55 140.37,-545.75 137.07,-551.92"/>
</a>
</g>
</g>
<!-- Node10 -->
<g id="Node000010" class="node">
<title>Node10</title>
<g id="a_Node000010"><a xlink:href="group__bme280__interface__driver.html#gad9b425a111baeaedd61b2bd8d199963a" target="_top" xlink:title="interface spi bus deinit">
<polygon fill="white" stroke="#666666" points="258.88,-536 147.62,-536 147.62,-504 258.88,-504 258.88,-536"/>
<text xml:space="preserve" text-anchor="start" x="155.62" y="-522.5" font-family="Helvetica,sans-Serif" font-size="10.00">bme280_interface_spi</text>
<text xml:space="preserve" text-anchor="middle" x="203.25" y="-510.5" font-family="Helvetica,sans-Serif" font-size="10.00">_deinit</text>
</a>
</g>
</g>
<!-- Node1&#45;&gt;Node10 -->
<g id="edge9_Node000001_Node000010" class="edge">
<title>Node1&#45;&gt;Node10</title>
<g id="a_edge9_Node000001_Node000010"><a xlink:title=" ">
<path fill="none" stroke="#63b8ff" d="M62.44,-448.38C78.33,-460.74 106.43,-481.41 133,-495 135.83,-496.45 138.76,-497.85 141.75,-499.2"/>
<polygon fill="#63b8ff" stroke="#63b8ff" points="140.09,-502.3 150.66,-503 142.83,-495.86 140.09,-502.3"/>
</a>
</g>
</g>
<!-- Node11 -->
<g id="Node000011" class="node">
<title>Node11</title>
<g id="a_Node000011"><a xlink:href="group__bme280__interface__driver.html#ga8ba2e28c6378d6ed52d308e4d9320dbd" target="_top" xlink:title="interface spi bus init">
<polygon fill="white" stroke="#666666" points="267.88,-486 138.62,-486 138.62,-466 267.88,-466 267.88,-486"/>
<text xml:space="preserve" text-anchor="middle" x="203.25" y="-472.5" font-family="Helvetica,sans-Serif" font-size="10.00">bme280_interface_spi_init</text>
</a>
</g>
</g>
<!-- Node1&#45;&gt;Node11 -->
<g id="edge10_Node000001_Node000011" class="edge">
<title>Node1&#45;&gt;Node11</title>
<g id="a_edge10_Node000001_Node000011"><a xlink:title=" ">
<path fill="none" stroke="#63b8ff" d="M91.64,-448.48C109.42,-452.91 130.33,-458.11 149.14,-462.79"/>
<polygon fill="#63b8ff" stroke="#63b8ff" points="148.23,-466.17 158.77,-465.18 149.92,-459.37 148.23,-466.17"/>
</a>
</g>
</g>
<!-- Node12 -->
<g id="Node000012" class="node">
<title>Node12</title>
<g id="a_Node000012"><a xlink:href="group__bme280__interface__driver.html#gac4c953917a234f2c0a8bb2d63bf80299" target="_top" xlink:title="interface spi bus read">
<polygon fill="white" stroke="#666666" points="270.88,-448 135.62,-448 135.62,-428 270.88,-428 270.88,-448"/>
<text xml:space="preserve" text-anchor="middle" x="203.25" y="-434.5" font-family="Helvetica,sans-Serif" font-size="10.00">bme280_interface_spi_read</text>
</a>
</g>
</g>
<!-- Node1&#45;&gt;Node12 -->
<g id="edge11_Node000001_Node000012" class="edge">
<title>Node1&#45;&gt;Node12</title>
<g id="a_edge11_Node000001_Node000012"><a xlink:title=" ">
<path fill="none" stroke="#63b8ff" d="M97.41,-438C105.84,-438 114.81,-438 123.81,-438"/>
<polygon fill="#63b8ff" stroke="#63b8ff" points="123.69,-441.5 133.69,-438 123.69,-434.5 123.69,-441.5"/>
</a>
</g>
</g>
<!-- Node13 -->
<g id="Node000013" class="node">
<title>Node13</title>
<g id="a_Node000013"><a xlink:href="group__bme280__interface__driver.html#ga3f0e3e8ab53513123f31d6b1b1f48d95" target="_top" xlink:title="interface spi bus write">
<polygon fill="white" stroke="#666666" points="258.88,-410 147.62,-410 147.62,-378 258.88,-378 258.88,-410"/>
<text xml:space="preserve" text-anchor="start" x="155.62" y="-396.5" font-family="Helvetica,sans-Serif" font-size="10.00">bme280_interface_spi</text>
<text xml:space="preserve" text-anchor="middle" x="203.25" y="-384.5" font-family="Helvetica,sans-Serif" font-size="10.00">_write</text>
</a>
</g>
</g>
<!-- Node1&#45;&gt;Node13 -->
<g id="edge12_Node000001_Node000013" class="edge">
<title>Node1&#45;&gt;Node13</title>
<g id="a_edge12_Node000001_Node000013"><a xlink:title=" ">
<path fill="none" stroke="#63b8ff" d="M85.7,-427.57C100.9,-423.2 119.06,-417.96 136.47,-412.95"/>
<polygon fill="#63b8ff" stroke="#63b8ff" points="137.09,-416.41 145.73,-410.28 135.15,-409.69 137.09,-416.41"/>
</a>
</g>
</g>
<!-- Node14 -->
<g id="Node000014" class="node">
<title>Node14</title>
<g id="a_Node000014"><a xlink:href="group__bme280__base__driver.html#ga595d16ea9a4f68b45d0b9fc06c071879" target="_top" xlink:title="set the iic address pin">
<polygon fill="white" stroke="#666666" points="258.88,-360 147.62,-360 147.62,-340 258.88,-340 258.88,-360"/>
<text xml:space="preserve" text-anchor="middle" x="203.25" y="-346.5" font-family="Helvetica,sans-Serif" font-size="10.00">bme280_set_addr_pin</text>
</a>
</g>
</g>
<!-- Node1&#45;&gt;Node14 -->
<g id="edge13_Node000001_Node000014" class="edge">
<title>Node1&#45;&gt;Node14</title>
<g id="a_edge13_Node000001_Node000014"><a xlink:title=" ">
<path fill="none" stroke="#63b8ff" d="M58.78,-427.99C73.24,-413 102.63,-384.78 133,-369 136.26,-367.3 139.69,-365.75 143.21,-364.32"/>
<polygon fill="#63b8ff" stroke="#63b8ff" points="144.31,-367.64 152.51,-360.93 141.92,-361.06 144.31,-367.64"/>
</a>
</g>
</g>
<!-- Node15 -->
<g id="Node000015" class="node">
<title>Node15</title>
<g id="a_Node000015"><a xlink:href="group__bme280__base__driver.html#gaa5134a1e7d271fa9525ddc7bc3661888" target="_top" xlink:title="set filter">
<polygon fill="white" stroke="#666666" points="249.88,-322 156.62,-322 156.62,-302 249.88,-302 249.88,-322"/>
<text xml:space="preserve" text-anchor="middle" x="203.25" y="-308.5" font-family="Helvetica,sans-Serif" font-size="10.00">bme280_set_filter</text>
</a>
</g>
</g>
<!-- Node1&#45;&gt;Node15 -->
<g id="edge14_Node000001_Node000015" class="edge">
<title>Node1&#45;&gt;Node15</title>
<g id="a_edge14_Node000001_Node000015"><a xlink:title=" ">
<path fill="none" stroke="#63b8ff" d="M54.61,-427.67C65.75,-406.23 94.38,-356.75 133,-331 136.97,-328.36 141.3,-326.08 145.79,-324.11"/>
<polygon fill="#63b8ff" stroke="#63b8ff" points="146.94,-327.42 155.06,-320.62 144.47,-320.87 146.94,-327.42"/>
</a>
</g>
</g>
<!-- Node16 -->
<g id="Node000016" class="node">
<title>Node16</title>
<g id="a_Node000016"><a xlink:href="group__bme280__base__driver.html#gae8ca5d4d531ee44e0ab9f2fa932cc2e4" target="_top" xlink:title="set humidity oversampling">
<polygon fill="white" stroke="#666666" points="258.88,-284 147.62,-284 147.62,-252 258.88,-252 258.88,-284"/>
<text xml:space="preserve" text-anchor="start" x="155.62" y="-270.5" font-family="Helvetica,sans-Serif" font-size="10.00">bme280_set_humidity</text>
<text xml:space="preserve" text-anchor="middle" x="203.25" y="-258.5" font-family="Helvetica,sans-Serif" font-size="10.00">_oversampling</text>
</a>
</g>
</g>
<!-- Node1&#45;&gt;Node16 -->
<g id="edge15_Node000001_Node000016" class="edge">
<title>Node1&#45;&gt;Node16</title>
<g id="a_edge15_Node000001_Node000016"><a xlink:title=" ">
<path fill="none" stroke="#63b8ff" d="M52.69,-427.58C61.27,-401.22 87.35,-331.24 133,-293 134.48,-291.76 136.03,-290.58 137.63,-289.45"/>
<polygon fill="#63b8ff" stroke="#63b8ff" points="139.26,-292.56 146.01,-284.39 135.64,-286.57 139.26,-292.56"/>
</a>
</g>
</g>
<!-- Node17 -->
<g id="Node000017" class="node">
<title>Node17</title>
<g id="a_Node000017"><a xlink:href="group__bme280__base__driver.html#ga8450d7247c8cf4a7d100d591241136ba" target="_top" xlink:title="set the interface">
<polygon fill="white" stroke="#666666" points="259.25,-234 147.25,-234 147.25,-214 259.25,-214 259.25,-234"/>
<text xml:space="preserve" text-anchor="middle" x="203.25" y="-220.5" font-family="Helvetica,sans-Serif" font-size="10.00">bme280_set_interface</text>
</a>
</g>
</g>
<!-- Node1&#45;&gt;Node17 -->
<g id="edge16_Node000001_Node000017" class="edge">
<title>Node1&#45;&gt;Node17</title>
<g id="a_edge16_Node000001_Node000017"><a xlink:title=" ">
<path fill="none" stroke="#63b8ff" d="M50.77,-427.71C55.33,-395.31 73.87,-294.55 133,-243 134.29,-241.87 135.65,-240.81 137.05,-239.82"/>
<polygon fill="#63b8ff" stroke="#63b8ff" points="138.73,-242.89 145.63,-234.85 135.22,-236.83 138.73,-242.89"/>
</a>
</g>
</g>
<!-- Node18 -->
<g id="Node000018" class="node">
<title>Node18</title>
<g id="a_Node000018"><a xlink:href="group__bme280__base__driver.html#gad28d3251607ec6446bd00a4e7491d2f6" target="_top" xlink:title="set mode">
<polygon fill="white" stroke="#666666" points="252.5,-196 154,-196 154,-176 252.5,-176 252.5,-196"/>
<text xml:space="preserve" text-anchor="middle" x="203.25" y="-182.5" font-family="Helvetica,sans-Serif" font-size="10.00">bme280_set_mode</text>
</a>
</g>
</g>
<!-- Node1&#45;&gt;Node18 -->
<g id="edge17_Node000001_Node000018" class="edge">
<title>Node1&#45;&gt;Node18</title>
<g id="a_edge17_Node000001_Node000018"><a xlink:title=" ">
<path fill="none" stroke="#63b8ff" d="M49.96,-427.84C52.16,-391.72 64.6,-268.37 133,-205 136.11,-202.12 139.61,-199.67 143.36,-197.58"/>
<polygon fill="#63b8ff" stroke="#63b8ff" points="144.67,-200.83 152.32,-193.51 141.77,-194.46 144.67,-200.83"/>
</a>
</g>
</g>
<!-- Node19 -->
<g id="Node000019" class="node">
<title>Node19</title>
<g id="a_Node000019"><a xlink:href="group__bme280__base__driver.html#ga45fc9d89200d59732415245ddda36adb" target="_top" xlink:title="set pressure oversampling">
<polygon fill="white" stroke="#666666" points="259.25,-158 147.25,-158 147.25,-126 259.25,-126 259.25,-158"/>
<text xml:space="preserve" text-anchor="start" x="155.25" y="-144.5" font-family="Helvetica,sans-Serif" font-size="10.00">bme280_set_pressure</text>
<text xml:space="preserve" text-anchor="middle" x="203.25" y="-132.5" font-family="Helvetica,sans-Serif" font-size="10.00">_oversampling</text>
</a>
</g>
</g>
<!-- Node1&#45;&gt;Node19 -->
<g id="edge18_Node000001_Node000019" class="edge">
<title>Node1&#45;&gt;Node19</title>
<g id="a_edge18_Node000001_Node000019"><a xlink:title=" ">
<path fill="none" stroke="#63b8ff" d="M49.57,-427.54C50.39,-387.88 58.6,-245.03 133,-167 134.36,-165.57 135.82,-164.22 137.34,-162.95"/>
<polygon fill="#63b8ff" stroke="#63b8ff" points="139.25,-165.88 145.51,-157.33 135.29,-160.11 139.25,-165.88"/>
</a>
</g>
</g>
<!-- Node20 -->
<g id="Node000020" class="node">
<title>Node20</title>
<g id="a_Node000020"><a xlink:href="group__bme280__base__driver.html#ga3e262f6746e6b6cb5376238519e4f2ce" target="_top" xlink:title="set spi wire">
<polygon fill="white" stroke="#666666" points="258.5,-108 148,-108 148,-88 258.5,-88 258.5,-108"/>
<text xml:space="preserve" text-anchor="middle" x="203.25" y="-94.5" font-family="Helvetica,sans-Serif" font-size="10.00">bme280_set_spi_wire</text>
</a>
</g>
</g>
<!-- Node1&#45;&gt;Node20 -->
<g id="edge19_Node000001_Node000020" class="edge">
<title>Node1&#45;&gt;Node20</title>
<g id="a_edge19_Node000001_Node000020"><a xlink:title=" ">
<path fill="none" stroke="#63b8ff" d="M50.79,-427.72C57.21,-378.03 87.3,-163.32 133,-117 134.58,-115.4 136.27,-113.94 138.07,-112.59"/>
<polygon fill="#63b8ff" stroke="#63b8ff" points="139.64,-115.73 146.42,-107.59 136.04,-109.72 139.64,-115.73"/>
</a>
</g>
</g>
<!-- Node21 -->
<g id="Node000021" class="node">
<title>Node21</title>
<g id="a_Node000021"><a xlink:href="group__bme280__base__driver.html#ga0d861e352d42d7da9ede5cc56e188774" target="_top" xlink:title="set standby time">
<polygon fill="white" stroke="#666666" points="269.75,-70 136.75,-70 136.75,-50 269.75,-50 269.75,-70"/>
<text xml:space="preserve" text-anchor="middle" x="203.25" y="-56.5" font-family="Helvetica,sans-Serif" font-size="10.00">bme280_set_standby_time</text>
</a>
</g>
</g>
<!-- Node1&#45;&gt;Node21 -->
<g id="edge20_Node000001_Node000021" class="edge">
<title>Node1&#45;&gt;Node21</title>
<g id="a_edge20_Node000001_Node000021"><a xlink:title=" ">
<path fill="none" stroke="#63b8ff" d="M50.5,-427.59C55.82,-374.2 82.55,-131.47 133,-79 133.72,-78.25 134.46,-77.53 135.23,-76.84"/>
<polygon fill="#63b8ff" stroke="#63b8ff" points="136.9,-79.95 143.03,-71.31 132.85,-74.24 136.9,-79.95"/>
</a>
</g>
</g>
<!-- Node22 -->
<g id="Node000022" class="node">
<title>Node22</title>
<g id="a_Node000022"><a xlink:href="group__bme280__base__driver.html#ga3d505f79d0e43eec0bb08c1805a4cee3" target="_top" xlink:title="set temperatue oversampling">
<polygon fill="white" stroke="#666666" points="264.88,-32 141.62,-32 141.62,0 264.88,0 264.88,-32"/>
<text xml:space="preserve" text-anchor="start" x="149.62" y="-18.5" font-family="Helvetica,sans-Serif" font-size="10.00">bme280_set_temperatue</text>
<text xml:space="preserve" text-anchor="middle" x="203.25" y="-6.5" font-family="Helvetica,sans-Serif" font-size="10.00">_oversampling</text>
</a>
</g>
</g>
<!-- Node1&#45;&gt;Node22 -->
<g id="edge21_Node000001_Node000022" class="edge">
<title>Node1&#45;&gt;Node22</title>
<g id="a_edge21_Node000001_Node000022"><a xlink:title=" ">
<path fill="none" stroke="#63b8ff" d="M50.32,-427.71C55.02,-371.51 80.08,-101.85 133,-41 133.36,-40.59 133.72,-40.19 134.09,-39.79"/>
<polygon fill="#63b8ff" stroke="#63b8ff" points="136.28,-42.53 141.62,-33.38 131.74,-37.2 136.28,-42.53"/>
</a>
</g>
</g>
</g>
</svg>
